# xmcd CD database file
#
# Track frame offsets:
#	150
#	17321
#	35495
#	52628
#	74094
#	93327
#	115522
#	136887
#	155109
#	170024
#	186267
#	204666
#	221507
#	237648
#	257892
#	272620
#	290296
#	303979
#	320636
#
# Disc length: 4529 seconds
#
# Revision: 1
# Processed by: cddbd v1.5.2PL0 Copyright (c) Steve Scherf et al.
# Submitted via: CDex 1.51
#
DISCID=1611af13
DTITLE=Various Artist - so country - disc one
DYEAR=2007
DGENRE=Country
TTITLE0=Produ Of The House We Built - Brooks and Dunn
TTITLE1=Watching Airplanes - Gary Allan
TTITLE2=Some Hearts - Carrie Underwood
TTITLE3=Don' t Blink - Kenny Chesney
TTITLE4=Strong - LeAnn Rimes
TTITLE5=Online - Brad Paisley
TTITLE6=Stay - Sugarland
TTITLE7=Open Ended Heartache - Adam Brand
TTITLE8=You Don't Have To Go Home - Gretchen Wilson
TTITLE9=Everything Is Fine - Josh Turner
TTITLE10=Love's Standin' - Vince Gill
TTITLE11=Someone Else's Dream - Adam Harvey
TTITLE12=Save Yourself - The McClymonts
TTITLE13=Must Be Doin' Somethin' Right - Billy Currington
TTITLE14=(I Never Promised You A) Rose Garden - Martina McBride
TTITLE15=Crying Time - Raul Malo
TTITLE16=Dirty Girl - Terri Clark
TTITLE17=Shut Up And Kiss Me - Mary Chapin
TTITLE18=I'm Already There - Lonestar
EXTD=YEAR: 2007
EXTT0=
EXTT1=
EXTT2=
EXTT3=
EXTT4=
EXTT5=
EXTT6=
EXTT7=
EXTT8=
EXTT9=
EXTT10=
EXTT11=
EXTT12=
EXTT13=
EXTT14=
EXTT15=
EXTT16=
EXTT17=
EXTT18=
PLAYORDER=
